HIERARCHY
ROOT mixamorig:Hips
{
	OFFSET 0.00 0.00 0.00
	CHANNELS 6 Xposition Yposition Zposition Zrotation Yrotation Xrotation
	JOINT mixamorig:Spine
	{
		OFFSET	0.0000	10.1816	0.1315
		CHANNELS 3 Zrotation Yrotation Xrotation
		JOINT mixamorig:Spine1
		{
			OFFSET	0.0000	10.0835	-1.0008
			CHANNELS 3 Zrotation Yrotation Xrotation
			JOINT mixamorig:Spine2
			{
				OFFSET	0.0000	9.1000	-1.3734
				CHANNELS 3 Zrotation Yrotation Xrotation
				JOINT mixamorig:Neck
				{
					OFFSET	0.0000	16.6717	-2.5162
					CHANNELS 3 Zrotation Yrotation Xrotation
					JOINT mixamorig:Head
					{
						OFFSET	-0.0000	9.6179	1.6850
						CHANNELS 3 Zrotation Yrotation Xrotation
						JOINT mixamorig:HeadTop_End
						{
							OFFSET	0.0000	17.8152	2.5850
							CHANNELS 3 Zrotation Yrotation Xrotation
							End Site
							{
								OFFSET 0.0000 0.0000 0.0000
							}
						}
						JOINT mixamorig:LeftEye
						{
							OFFSET	3.0675	6.4095	9.2836
							CHANNELS 3 Zrotation Yrotation Xrotation
							End Site
							{
								OFFSET 0.0000 0.0000 0.0000
							}
						}
						JOINT mixamorig:RightEye
						{
							OFFSET	-3.0676	6.4095	9.2835
							CHANNELS 3 Zrotation Yrotation Xrotation
							End Site
							{
								OFFSET 0.0000 0.0000 0.0000
							}
						}
					}
				}
				JOINT mixamorig:LeftShoulder
				{
					OFFSET	4.5705	10.9460	-2.6280
					CHANNELS 3 Zrotation Yrotation Xrotation
					JOINT mixamorig:LeftArm
					{
						OFFSET	10.5893	-0.5824	-2.2321
						CHANNELS 3 Zrotation Yrotation Xrotation
						JOINT mixamorig:LeftForeArm
						{
							OFFSET	27.7308	-0.8050	-2.3459
							CHANNELS 3 Zrotation Yrotation Xrotation
							JOINT mixamorig:LeftHand
							{
								OFFSET	28.2754	-0.7243	1.5819
								CHANNELS 3 Zrotation Yrotation Xrotation
								JOINT mixamorig:LeftHandThumb1
								{
									OFFSET	1.9768	-1.4321	3.1303
									CHANNELS 3 Zrotation Yrotation Xrotation
									JOINT mixamorig:LeftHandThumb2
									{
										OFFSET	2.6262	-2.0520	2.5056
										CHANNELS 3 Zrotation Yrotation Xrotation
										JOINT mixamorig:LeftHandThumb3
										{
											OFFSET	2.6086	-1.6384	1.4960
											CHANNELS 3 Zrotation Yrotation Xrotation
											End Site
											{
												OFFSET 1.6082 -1.1610 1.5598
											}
										}
									}
								}
								JOINT mixamorig:LeftHandIndex1
								{
									OFFSET	8.7164	-1.5021	3.1818
									CHANNELS 3 Zrotation Yrotation Xrotation
									JOINT mixamorig:LeftHandIndex2
									{
										OFFSET	3.5376	-0.8731	0.4888
										CHANNELS 3 Zrotation Yrotation Xrotation
										JOINT mixamorig:LeftHandIndex3
										{
											OFFSET	2.6995	-0.9224	0.4174
											CHANNELS 3 Zrotation Yrotation Xrotation
											End Site
											{
												OFFSET 2.2837 -0.6697 0.2474
											}
										}
									}
								}
								JOINT mixamorig:LeftHandMiddle1
								{
									OFFSET	9.3748	-1.4680	0.9189
									CHANNELS 3 Zrotation Yrotation Xrotation
									JOINT mixamorig:LeftHandMiddle2
									{
										OFFSET	3.6134	-0.7746	0.1449
										CHANNELS 3 Zrotation Yrotation Xrotation
										JOINT mixamorig:LeftHandMiddle3
										{
											OFFSET	2.8303	-0.8314	0.0792
											CHANNELS 3 Zrotation Yrotation Xrotation
											End Site
											{
												OFFSET 2.7849 -0.5114 0.1171
											}
										}
									}
								}
								JOINT mixamorig:LeftHandRing1
								{
									OFFSET	9.0730	-1.7773	-0.9460
									CHANNELS 3 Zrotation Yrotation Xrotation
									JOINT mixamorig:LeftHandRing2
									{
										OFFSET	3.0963	-0.5513	-0.2393
										CHANNELS 3 Zrotation Yrotation Xrotation
										JOINT mixamorig:LeftHandRing3
										{
											OFFSET	2.8588	-0.6503	-0.1853
											CHANNELS 3 Zrotation Yrotation Xrotation
											End Site
											{
												OFFSET 2.5536 -0.6712 -0.1945
											}
										}
									}
								}
								JOINT mixamorig:LeftHandPinky1
								{
									OFFSET	8.1210	-2.3975	-2.8769
									CHANNELS 3 Zrotation Yrotation Xrotation
									JOINT mixamorig:LeftHandPinky2
									{
										OFFSET	3.4503	-0.6398	-0.8039
										CHANNELS 3 Zrotation Yrotation Xrotation
										JOINT mixamorig:LeftHandPinky3
										{
											OFFSET	2.0317	-0.3919	-0.4345
											CHANNELS 3 Zrotation Yrotation Xrotation
											End Site
											{
												OFFSET 1.9042 -0.2980 -0.4342
											}
										}
									}
								}
							}
						}
					}
				}
				JOINT mixamorig:RightShoulder
				{
					OFFSET	-4.5699	10.9462	-2.6281
					CHANNELS 3 Zrotation Yrotation Xrotation
					JOINT mixamorig:RightArm
					{
						OFFSET	-10.5898	-0.5826	-2.2321
						CHANNELS 3 Zrotation Yrotation Xrotation
						JOINT mixamorig:RightForeArm
						{
							OFFSET	-27.7309	-0.8051	-2.3459
							CHANNELS 3 Zrotation Yrotation Xrotation
							JOINT mixamorig:RightHand
							{
								OFFSET	-28.2754	-0.7244	1.5819
								CHANNELS 3 Zrotation Yrotation Xrotation
								JOINT mixamorig:RightHandPinky1
								{
									OFFSET	-8.1207	-2.3941	-2.8773
									CHANNELS 3 Zrotation Yrotation Xrotation
									JOINT mixamorig:RightHandPinky2
									{
										OFFSET	-3.4503	-0.6397	-0.8040
										CHANNELS 3 Zrotation Yrotation Xrotation
										JOINT mixamorig:RightHandPinky3
										{
											OFFSET	-2.0316	-0.3918	-0.4345
											CHANNELS 3 Zrotation Yrotation Xrotation
											End Site
											{
												OFFSET -1.9042 -0.2979 -0.4343
											}
										}
									}
								}
								JOINT mixamorig:RightHandRing1
								{
									OFFSET	-9.0726	-1.7739	-0.9464
									CHANNELS 3 Zrotation Yrotation Xrotation
									JOINT mixamorig:RightHandRing2
									{
										OFFSET	-3.0963	-0.5512	-0.2393
										CHANNELS 3 Zrotation Yrotation Xrotation
										JOINT mixamorig:RightHandRing3
										{
											OFFSET	-2.8588	-0.6502	-0.1853
											CHANNELS 3 Zrotation Yrotation Xrotation
											End Site
											{
												OFFSET -2.5536 -0.6711 -0.1945
											}
										}
									}
								}
								JOINT mixamorig:RightHandMiddle1
								{
									OFFSET	-9.3744	-1.4646	0.9184
									CHANNELS 3 Zrotation Yrotation Xrotation
									JOINT mixamorig:RightHandMiddle2
									{
										OFFSET	-3.6134	-0.7745	0.1449
										CHANNELS 3 Zrotation Yrotation Xrotation
										JOINT mixamorig:RightHandMiddle3
										{
											OFFSET	-2.8303	-0.8313	0.0792
											CHANNELS 3 Zrotation Yrotation Xrotation
											End Site
											{
												OFFSET -2.7849 -0.5114 0.1170
											}
										}
									}
								}
								JOINT mixamorig:RightHandIndex1
								{
									OFFSET	-8.7160	-1.4988	3.1813
									CHANNELS 3 Zrotation Yrotation Xrotation
									JOINT mixamorig:RightHandIndex2
									{
										OFFSET	-3.5377	-0.8729	0.4888
										CHANNELS 3 Zrotation Yrotation Xrotation
										JOINT mixamorig:RightHandIndex3
										{
											OFFSET	-2.6995	-0.9222	0.4173
											CHANNELS 3 Zrotation Yrotation Xrotation
											End Site
											{
												OFFSET -2.2838 -0.6696 0.2474
											}
										}
									}
								}
								JOINT mixamorig:RightHandThumb1
								{
									OFFSET	-1.9765	-1.4291	3.1299
									CHANNELS 3 Zrotation Yrotation Xrotation
									JOINT mixamorig:RightHandThumb2
									{
										OFFSET	-2.6263	-2.0519	2.5056
										CHANNELS 3 Zrotation Yrotation Xrotation
										JOINT mixamorig:RightHandThumb3
										{
											OFFSET	-2.6086	-1.6383	1.4960
											CHANNELS 3 Zrotation Yrotation Xrotation
											End Site
											{
												OFFSET -1.6083 -1.1610 1.5598
											}
										}
									}
								}
							}
						}
					}
				}
			}
		}
	}
	JOINT mixamorig:LeftUpLeg
	{
		OFFSET	8.2078	-6.7517	-1.5996
		CHANNELS 3 Zrotation Yrotation Xrotation
		JOINT mixamorig:LeftLeg
		{
			OFFSET	0.0000	-44.3132	-2.2711
			CHANNELS 3 Zrotation Yrotation Xrotation
			JOINT mixamorig:LeftFoot
			{
				OFFSET	0.0000	-44.1978	-5.4110
				CHANNELS 3 Zrotation Yrotation Xrotation
				JOINT mixamorig:LeftToeBase
				{
					OFFSET	0.0000	-8.7286	10.7105
					CHANNELS 3 Zrotation Yrotation Xrotation
					End Site
					{
						OFFSET 0.0000 -0.0007 9.2781
					}
				}
			}
		}
	}
	JOINT mixamorig:RightUpLeg
	{
		OFFSET	-8.2078	-6.7517	-1.5996
		CHANNELS 3 Zrotation Yrotation Xrotation
		JOINT mixamorig:RightLeg
		{
			OFFSET	-0.0000	-44.3133	-2.2711
			CHANNELS 3 Zrotation Yrotation Xrotation
			JOINT mixamorig:RightFoot
			{
				OFFSET	-0.0000	-44.1978	-5.4110
				CHANNELS 3 Zrotation Yrotation Xrotation
				JOINT mixamorig:RightToeBase
				{
					OFFSET	-0.0000	-8.7286	10.7105
					CHANNELS 3 Zrotation Yrotation Xrotation
					End Site
					{
						OFFSET 0.0000 -0.0007 9.2781
					}
				}
			}
		}
	}
}
MOTION
Frames: 4
Frame Time: 0.0333333
-0.0135 93.6766 2.1205 1.4068 -3.5463 -0.4384 -0.2232 0.6811 2.0819 -0.3922 1.3687 3.1300 -0.3793 1.3752 3.1292 -1.8934 -2.3070 -4.1282 7.1007 -12.9912 -16.3454 0.0000 0.0000 0.0000 0.0000 0.0000 0.0000 0.0000 0.0000 0.0000 3.5587 -7.3242 0.8087 -70.3726 9.4461 24.5946 164.5667 -83.8063 -166.3049 21.7635 6.7643 18.5154 -5.2529 5.7832 0.1927 -6.2125 5.0409 3.6837 3.8794 22.0981 10.9242 -32.0963 -9.4076 1.0420 -43.1992 -0.2812 5.9645 -33.3633 -3.2098 4.0492 -42.3959 -8.0345 2.9071 -40.7280 -2.3282 1.5743 -37.7361 -0.4056 1.3099 -47.8256 -11.6778 3.0937 -38.3710 -1.5994 -2.4324 -34.9857 -2.5696 -2.1987 -47.5874 -13.8160 2.7559 -40.6982 -6.0328 -6.3776 -31.7492 -2.9166 -6.5832 3.6213 1.6087 0.7681 67.2988 -4.2309 35.0294 -172.0687 76.3964 -173.9035 -26.1607 0.3931 8.4251 56.4352 15.5444 3.2917 44.5637 3.1078 -9.1324 33.4029 3.0888 -6.8825 48.9459 10.5708 3.3732 23.7876 0.5350 -1.6418 28.6038 2.1001 -1.9206 38.8130 7.1908 2.6982 35.9870 2.1797 1.3149 45.5155 0.5559 1.6250 45.5329 1.6210 4.3873 28.5017 0.4729 3.9405 39.6600 3.0339 4.9660 3.9938 -13.2313 -3.9058 4.7829 2.6069 1.7772 -5.1290 -14.9203 6.9395 -4.1694 3.9017 -25.3260 4.9357 -0.5685 53.1844 2.4723 0.3069 -25.0112 0.0000 -0.0000 -5.5373 1.2860 -7.7130 -24.1627 -11.1668 -1.5947 54.4565 4.2806 -2.6777 -24.4005 -0.0000 -0.0000 -8.0292 
-0.0012 94.8030 2.1068 1.0183 -3.3182 0.0655 -0.1348 0.6457 1.8657 -0.2367 1.2972 2.7495 -0.2250 1.3027 2.7486 -1.6755 -2.2889 -3.9762 6.7385 -12.6918 -16.7180 0.0000 0.0000 0.0000 0.0000 0.0000 0.0000 0.0000 0.0000 0.0000 5.0321 -8.3276 0.6432 -72.2109 10.1505 24.8377 166.3593 -82.8917 -168.1095 23.4076 6.1056 17.8224 -4.8342 5.8203 0.1689 -6.2137 5.0464 3.6856 3.8512 22.3359 11.0626 -32.2367 -9.5523 1.0206 -42.9406 -0.2898 5.9295 -33.2627 -3.2111 4.0344 -42.8447 -8.5217 2.8481 -40.8749 -2.3309 1.5823 -37.6335 -0.4028 1.3058 -48.3362 -11.8698 3.1117 -38.4401 -1.6047 -2.4354 -34.8033 -2.5568 -2.1915 -48.3314 -13.8573 2.8239 -41.3676 -6.1147 -6.4516 -31.5504 -2.8921 -6.5474 3.6453 2.5849 0.9584 66.1646 -4.1418 36.4551 -172.6283 75.0385 -174.4809 -25.6021 1.8929 6.2946 56.3506 15.5983 3.2745 44.6314 3.1193 -9.1436 33.3481 3.0818 -6.8728 48.6909 10.6132 3.3406 23.6650 0.5274 -1.6341 28.5171 2.0948 -1.9156 38.2664 7.4001 2.5960 35.5708 2.1703 1.2930 45.5290 0.5566 1.6276 45.2671 1.7971 4.3161 28.2922 0.4727 3.9115 39.4844 3.0391 4.9406 3.6236 -13.3244 -3.8569 4.7829 2.6069 1.7772 -5.1271 -14.8393 6.8885 -4.0772 3.6561 -25.1363 5.3288 -0.8202 51.1729 2.3685 0.1922 -21.8925 0.0000 0.0000 -7.3580 1.5732 -8.0973 -23.8933 -11.0404 -2.1711 52.3408 4.0228 -2.2652 -21.0268 -0.0000 0.0000 -10.0334 
0.1106 98.1446 2.4727 0.3167 -3.4836 0.4790 0.1590 0.6910 1.4690 0.0977 1.4021 2.1950 0.1083 1.4091 2.1933 -1.4297 -2.2866 -4.1275 6.5492 -12.5781 -15.6548 0.0000 0.0000 0.0000 0.0000 0.0000 0.0000 0.0000 0.0000 0.0000 5.6817 -8.6294 0.5614 -71.8934 10.7253 26.3922 169.9748 -79.8297 -171.7649 24.1877 5.8033 18.1897 -4.4779 5.8369 0.1321 -6.1532 4.7419 3.5813 3.8319 22.5035 11.1606 -32.2536 -9.8315 0.9518 -42.5734 -0.3017 5.8798 -33.0637 -3.2134 4.0052 -42.9498 -9.0163 2.7520 -40.8491 -2.3304 1.5809 -37.5102 -0.3993 1.3009 -48.3158 -12.0289 3.0821 -38.4264 -1.6036 -2.4348 -34.6613 -2.5468 -2.1858 -48.2974 -13.8631 2.8195 -41.7726 -6.1647 -6.4959 -31.4416 -2.8787 -6.5278 5.4702 3.7014 1.2592 62.2405 -3.6641 37.6447 -173.8354 70.9034 -175.7422 -25.3934 2.7688 5.1145 56.2291 15.7279 3.2408 44.5135 3.0992 -9.1242 33.2912 3.0745 -6.8627 48.3204 10.6095 3.3046 23.3236 0.5062 -1.6124 28.4708 2.0917 -1.9137 37.9533 7.7394 2.4899 35.0529 2.1585 1.2658 45.5499 0.5577 1.6321 44.9947 2.0821 4.2164 28.0523 0.4723 3.8782 39.3483 3.0430 4.9210 3.1837 -13.5343 -3.6825 4.7829 2.6069 1.7772 -5.1256 -14.7731 6.8468 -3.8034 4.2716 -23.0026 5.0479 -1.9269 44.7964 1.6882 -0.0936 -11.3662 0.0000 -0.0000 -13.4037 1.7381 -9.1331 -21.2591 -10.7299 -3.2372 45.0084 5.5417 0.5379 -10.1609 0.4568 0.1063 -13.3749 
0.2984 102.6375 2.9746 -0.3372 -3.9175 1.0200 0.5094 0.7843 0.9768 0.4536 1.6045 1.5231 0.4625 1.6141 1.5197 -1.2525 -2.3090 -4.7417 6.5543 -12.7036 -13.6114 0.0000 0.0000 0.0000 0.0000 0.0000 0.0000 0.0000 0.0000 0.0000 5.1643 -8.1363 0.6261 -69.1089 10.7221 28.5213 172.5259 -75.3085 -174.3748 24.1308 6.1649 19.5086 -4.3955 5.8328 0.1149 -6.1040 4.4960 3.4974 3.8153 22.6522 11.2478 -32.1728 -10.1041 0.8740 -42.3599 -0.3084 5.8509 -32.8997 -3.2153 3.9811 -42.7764 -9.3727 2.6572 -40.7814 -2.3292 1.5772 -37.4077 -0.3964 1.2969 -47.9655 -12.0942 3.0355 -38.3992 -1.6015 -2.4336 -34.5928 -2.5420 -2.1830 -47.5955 -13.7782 2.7633 -41.6931 -6.1549 -6.4872 -31.4513 -2.8799 -6.5295 6.9659 3.9638 1.3885 58.2298 -1.7456 38.9599 -174.7157 66.0146 -176.6873 -25.0154 3.0490 6.1969 56.1663 15.9559 3.1956 44.5280 3.1017 -9.1266 33.2548 3.0699 -6.8562 48.2485 10.6423 3.2917 22.9965 0.4861 -1.5915 28.5280 2.0956 -1.9156 38.3220 8.1718 2.4352 34.6567 2.1493 1.2451 45.5841 0.5593 1.6383 45.0153 2.4351 4.1288 27.8037 0.4718 3.8437 39.2198 3.0467 4.9024 2.7967 -13.8528 -3.3722 4.7829 2.6069 1.7772 -5.1226 -14.6264 6.7548 -3.3308 5.8743 -20.1490 4.0050 -3.5382 36.1532 -0.3467 -0.2150 2.7969 -0.6229 -0.1656 -15.2596 1.5480 -10.9202 -17.5934 -7.9048 -2.3663 35.1362 8.6831 0.6822 1.7459 -2.4159 -0.5504 -14.2558 
